<svg width="24" height="24" viewBox="0 0 24 24" fill="none" xmlns="http://www.w3.org/2000/svg">
<mask id="path-1-inside-1_2_2319" fill="white">
<path d="M12.5 2C16.6421 2 20 5.35786 20 9.5C20 12.3777 18.3784 14.8752 16 16.1328V18C16 18.5523 15.5523 19 15 19H10C9.44772 19 9 18.5523 9 18V16.1328C6.62158 14.8752 5 12.3777 5 9.5C5 5.35786 8.35786 2 12.5 2Z"/>
</mask>
<path d="M16 16.1328L15.0651 14.3648L14 14.928V16.1328H16ZM15 19V21V21V19ZM9 16.1328H11V14.928L9.93489 14.3648L9 16.1328ZM12.5 2V4C15.5376 4 18 6.46243 18 9.5H20H22C22 4.25329 17.7467 0 12.5 0V2ZM20 9.5H18C18 11.6066 16.8152 13.4394 15.0651 14.3648L16 16.1328L16.9349 17.9009C19.9416 16.311 22 13.1488 22 9.5H20ZM16 16.1328H14V18H16H18V16.1328H16ZM16 18H14C14 17.4477 14.4477 17 15 17V19V21C16.6569 21 18 19.6569 18 18H16ZM15 19V17H10V19V21H15V19ZM10 19V17C10.5523 17 11 17.4477 11 18H9H7C7 19.6569 8.34315 21 10 21V19ZM9 18H11V16.1328H9H7V18H9ZM9 16.1328L9.93489 14.3648C8.18481 13.4394 7 11.6066 7 9.5H5H3C3 13.1488 5.05835 16.311 8.06511 17.9009L9 16.1328ZM5 9.5H7C7 6.46243 9.46243 4 12.5 4V2V0C7.25329 0 3 4.25329 3 9.5H5Z" fill="#5A636B" mask="url(#path-1-inside-1_2_2319)"/>
<mask id="path-3-inside-2_2_2319" fill="white">
<path d="M9 20H16V21C16 21.5523 15.5523 22 15 22H10C9.44772 22 9 21.5523 9 21V20Z"/>
</mask>
<path d="M9 20V18H7V20H9ZM16 20H18V18H16V20ZM9 20V22H16V20V18H9V20ZM16 20H14V21H16H18V20H16ZM15 22V20H10V22V24H15V22ZM9 21H11V20H9H7V21H9ZM10 22V20C10.5523 20 11 20.4477 11 21H9H7C7 22.6569 8.34315 24 10 24V22ZM16 21H14C14 20.4477 14.4477 20 15 20V22V24C16.6569 24 18 22.6569 18 21H16Z" fill="#5A636B" mask="url(#path-3-inside-2_2_2319)"/>
</svg>
