<svg width="24" height="24" viewBox="0 0 24 24" fill="none" xmlns="http://www.w3.org/2000/svg">
<path d="M20 6.55464V5C20 4.44772 19.5523 4 19 4H5C4.44772 4 4 4.44772 4 5V6.55464C4 6.83812 4.12032 7.10829 4.33104 7.29793L8.66897 11.2021C8.87968 11.3917 9 11.6619 9 11.9454V19.6126C9 20.2951 9.6687 20.7771 10.3162 20.5613L14.3162 19.2279C14.7246 19.0918 15 18.7097 15 18.2792L15 11.9454C15 11.6619 15.1203 11.3917 15.331 11.2021L19.669 7.29793C19.8797 7.10829 20 6.83812 20 6.55464Z" stroke="#5A636B" stroke-width="2"/>
</svg>
