<svg width="24" height="24" viewBox="0 0 24 24" fill="none" xmlns="http://www.w3.org/2000/svg">
<path d="M11.8535 15.9443C12.4842 15.9445 13.0322 16.4757 13.0322 17.123C13.0322 17.7704 12.4842 18.3016 11.8535 18.3018C11.2061 18.3018 10.6582 17.7705 10.6748 17.123C10.6582 16.4756 11.2061 15.9443 11.8535 15.9443Z" fill="#5A636B"/>
<path d="M12.1357 6C14.2938 6.00013 15.7383 7.29502 15.7383 9.1875C15.7383 10.5155 15.1073 11.4121 14.0449 12.0596C13.0488 12.6572 12.667 13.2715 12.6338 14.6162V14.7158H10.9404V14.6162C10.957 12.4414 11.6045 11.7773 12.7002 11.0967C13.3973 10.6651 13.9287 10.0673 13.9287 9.1875C13.9287 8.14172 13.1317 7.49429 12.1357 7.49414C11.2393 7.49414 10.376 8.04201 10.293 9.27051H8.5C8.56641 7.16212 10.1602 6 12.1357 6Z" fill="#5A636B"/>
<path fill-rule="evenodd" clip-rule="evenodd" d="M12 2C17.5228 2 22 6.47715 22 12C22 17.5228 17.5228 22 12 22C6.47715 22 2 17.5228 2 12C2 6.47715 6.47715 2 12 2ZM12 4C7.58172 4 4 7.58172 4 12C4 16.4183 7.58172 20 12 20C16.4183 20 20 16.4183 20 12C20 7.58172 16.4183 4 12 4Z" fill="#5A636B"/>
</svg>
