<svg width="24" height="24" viewBox="0 0 24 24" fill="none" xmlns="http://www.w3.org/2000/svg">
<path fill-rule="evenodd" clip-rule="evenodd" d="M19.7173 3.11716C19.8735 2.96095 20.1265 2.96095 20.2827 3.11716L21.1313 3.96481C21.2876 4.12102 21.2876 4.37501 21.1313 4.53122L18.6919 6.9697C20.9467 8.60458 22.2999 10.8155 22.9468 12.2558C22.9695 12.3067 22.9695 12.3612 22.9468 12.4121C21.8129 14.9366 18.5131 19.8337 11.9819 19.834L11.3794 19.8203C9.6801 19.7401 8.2126 19.3206 6.95362 18.708L4.02002 21.6425C3.86381 21.7988 3.60982 21.7988 3.45362 21.6425L2.60498 20.7939C2.44918 20.6377 2.44904 20.3846 2.60498 20.2285L5.1919 17.6406C3.22973 16.1924 1.9616 14.312 1.25537 12.9121L1.01709 12.4121C0.994298 12.3611 0.994307 12.3068 1.01709 12.2558C2.15103 9.73119 5.45055 4.83396 11.9819 4.83395C13.8961 4.83402 15.5316 5.25674 16.9175 5.91501L19.7173 3.11716ZM15.7642 9.89743C16.2176 10.5998 16.4819 11.4358 16.4819 12.334C16.4819 14.8191 14.467 16.8337 11.9819 16.834C11.0837 16.834 10.2478 16.5696 9.54541 16.1162L8.47412 17.1875C9.49434 17.5886 10.6592 17.834 11.9819 17.834C16.7849 17.8337 19.5121 14.6178 20.7515 12.334C20.0692 11.0768 18.9354 9.53838 17.2534 8.40817L15.7642 9.89743ZM11.9819 6.83395C7.17849 6.83396 4.4508 10.05 3.21143 12.334C3.88262 13.5708 4.99091 15.0803 6.62842 16.205L8.146 14.6865C7.72524 14.0019 7.48194 13.1964 7.48194 12.334C7.48194 9.84868 9.49666 7.83396 11.9819 7.83395C12.8447 7.83404 13.6507 8.07697 14.3355 8.49802L15.3911 7.44235C14.3947 7.06384 13.2623 6.83401 11.9819 6.83395ZM11.02 14.6416C11.3162 14.7652 11.641 14.834 11.9819 14.834C13.3624 14.8337 14.4819 13.7145 14.4819 12.334C14.4819 11.993 14.4132 11.6682 14.2896 11.372L11.02 14.6416ZM11.9819 9.83395C10.6012 9.83396 9.48194 10.9532 9.48194 12.334C9.48194 12.637 9.53844 12.9265 9.63721 13.1953L12.8433 9.98923C12.5745 9.89043 12.2849 9.83401 11.9819 9.83395Z" fill="#5A636B"/>
</svg>
