<svg width="24" height="24" viewBox="0 0 24 24" fill="none" xmlns="http://www.w3.org/2000/svg">
<path d="M16 7C16.5523 7 17 7.44772 17 8V16C17 16.5523 16.5523 17 16 17H8C7.44772 17 7 16.5523 7 16V8C7 7.44772 7.44772 7 8 7H16Z" fill="#5A636B"/>
<path fill-rule="evenodd" clip-rule="evenodd" d="M12 2C17.5228 2 22 6.47715 22 12C22 17.5228 17.5228 22 12 22C6.47715 22 2 17.5228 2 12C2 6.47715 6.47715 2 12 2ZM12 4C7.58172 4 4 7.58172 4 12C4 16.4183 7.58172 20 12 20C16.4183 20 20 16.4183 20 12C20 7.58172 16.4183 4 12 4Z" fill="#5A636B"/>
</svg>
