<svg width="24" height="24" viewBox="0 0 24 24" fill="none" xmlns="http://www.w3.org/2000/svg">
<path fill-rule="evenodd" clip-rule="evenodd" d="M5.32148 4.66442C8.16272 2.18634 12.4761 2.48059 14.9543 5.32164C17.1953 7.89123 17.1683 11.6645 15.0412 14.1957L20.1378 20.0407C20.2829 20.2072 20.2657 20.4598 20.0992 20.605L19.1952 21.3937C19.0287 21.5389 18.776 21.5216 18.6308 21.3552L13.5432 15.5228C10.7361 17.3622 6.93237 16.8968 4.66425 14.2963C2.18648 11.455 2.48055 7.14254 5.32148 4.66442ZM13.4465 6.6361C11.6943 4.62779 8.64563 4.42044 6.63691 6.17223C4.6284 7.92432 4.42032 10.973 6.17207 12.9818C7.86947 14.9276 10.7835 15.1835 12.7902 13.6048L12.9816 13.4476C14.9277 11.7503 15.1842 8.83536 13.6057 6.82848L13.4465 6.6361Z" fill="#5A636B"/>
</svg>
