<svg xmlns="http://www.w3.org/2000/svg" width="24" height="24" viewBox="0 0 24 24" fill="none">
<path fill-rule="evenodd" clip-rule="evenodd" d="M11.9995 8C14.4846 8.00026 16.4995 10.0149 16.4995 12.5C16.4995 14.9851 14.4846 16.9997 11.9995 17C9.51424 17 7.49952 14.9853 7.49952 12.5C7.49952 10.0147 9.51424 8 11.9995 8ZM11.9995 10C10.6188 10 9.49952 11.1193 9.49952 12.5C9.49952 13.8807 10.6188 15 11.9995 15C13.38 14.9997 14.4995 13.8806 14.4995 12.5C14.4995 11.1194 13.38 10.0003 11.9995 10Z" fill="#B5BFC9"/>
<path fill-rule="evenodd" clip-rule="evenodd" d="M11.9995 5C18.5308 5.00024 21.8305 9.89735 22.9644 12.4219C22.9871 12.4727 22.9871 12.5273 22.9644 12.5781C21.8305 15.1027 18.5308 19.9998 11.9995 20L11.397 19.9863C5.65996 19.7156 2.5498 15.6091 1.27296 13.0781L1.03468 12.5781C1.01188 12.5272 1.01188 12.4728 1.03468 12.4219C2.16862 9.89723 5.46812 5 11.9995 5ZM11.9995 7C7.19607 7 4.46838 10.2161 3.22901 12.5C4.46838 14.7839 7.19607 18 11.9995 18C16.8025 17.9998 19.5297 14.7838 20.7691 12.5C19.5297 10.2162 16.8025 7.00021 11.9995 7Z" fill="#B5BFC9"/>
</svg>
