<svg width="24" height="24" viewBox="0 0 24 24" fill="none" xmlns="http://www.w3.org/2000/svg">
<path d="M13.2422 4.25938C13.3963 4.11406 13.6369 4.11406 13.791 4.25938L21.2285 11.2731C21.6469 11.6676 21.6477 12.3333 21.2295 12.7281L13.7988 19.7418C13.6451 19.8869 13.4052 19.8873 13.251 19.7428L12.3105 18.8609C12.1424 18.7032 12.1418 18.4361 12.3096 18.2779L17.9062 13.0006H3.40039C3.17949 13.0006 3.00002 12.8211 3 12.6002V11.4C3.00009 11.1792 3.17953 11.0006 3.40039 11.0006H17.9062L12.3086 5.72129C12.1413 5.5634 12.1412 5.29712 12.3086 5.13926L13.2422 4.25938Z" fill="#5A636B"/>
</svg>
