<svg width="24" height="24" viewBox="0 0 24 24" fill="none" xmlns="http://www.w3.org/2000/svg">
<path fill-rule="evenodd" clip-rule="evenodd" d="M9.6582 4C10.2351 4 10.7862 4.24144 11.1768 4.66602L12.4199 6.01855C12.4318 6.03142 12.4493 6.03906 12.4668 6.03906H19.4375C20.5766 6.03906 21.5 6.96248 21.5 8.10156V17.9375C21.5 19.0766 20.5766 20 19.4375 20H4.5625C3.42341 20 2.5 19.0766 2.5 17.9375V6.0625C2.5 4.92341 3.42341 4 4.5625 4H9.6582ZM4.5625 6C4.52798 6 4.5 6.02798 4.5 6.0625V17.9375C4.5 17.972 4.52798 18 4.5625 18H19.4375C19.472 18 19.5 17.972 19.5 17.9375V8.10156C19.5 8.06704 19.472 8.03906 19.4375 8.03906H12.4668C11.8898 8.03906 11.3388 7.79677 10.9482 7.37207L9.70508 6.02051C9.69324 6.00764 9.67569 6 9.6582 6H4.5625Z" fill="#5A636B"/>
</svg>
