<svg width="24" height="24" viewBox="0 0 24 24" fill="none" xmlns="http://www.w3.org/2000/svg">
<path d="M18.5362 6.51537C18.6924 6.67158 18.6924 6.92485 18.5362 7.08106L13.6167 12.0005L18.5362 16.9199C18.6924 17.0762 18.6924 17.3294 18.5362 17.4856L17.4856 18.5362C17.3294 18.6924 17.0762 18.6924 16.9199 18.5362L12.0005 13.6167L7.08106 18.5362C6.92485 18.6924 6.67158 18.6924 6.51537 18.5362L5.46481 17.4856C5.3086 17.3294 5.3086 17.0762 5.46481 16.9199L10.3843 12.0005L5.46481 7.08106C5.3086 6.92485 5.3086 6.67158 5.46481 6.51537L6.51537 5.46481C6.67158 5.3086 6.92485 5.3086 7.08106 5.46481L12.0005 10.3843L16.9199 5.46481C17.0762 5.3086 17.3294 5.3086 17.4856 5.46481L18.5362 6.51537Z" fill="#5A636B"/>
</svg>
