<svg width="18" height="19" viewBox="0 0 18 19" fill="none" xmlns="http://www.w3.org/2000/svg">
<path d="M8 14.6C8 14.8209 7.82091 15 7.6 15H6.4C6.17909 15 6 14.8209 6 14.6V7.4C6 7.17909 6.17909 7 6.4 7H7.6C7.82091 7 8 7.17909 8 7.4V14.6Z" fill="#5A636B"/>
<path d="M12 14.6C12 14.8209 11.8209 15 11.6 15H10.4C10.1791 15 10 14.8209 10 14.6V7.4C10 7.17909 10.1791 7 10.4 7H11.6C11.8209 7 12 7.17909 12 7.4V14.6Z" fill="#5A636B"/>
<path fill-rule="evenodd" clip-rule="evenodd" d="M13 3H17.6C17.8209 3 18 3.17909 18 3.4V4.6C18 4.82091 17.8209 5 17.6 5H16.8672L16.0581 17.1331C15.988 18.1837 15.1154 19 14.0625 19H3.93748C2.88456 19 2.01197 18.1837 1.94191 17.1331L1.13281 5H0.4C0.179086 5 0 4.82091 0 4.6V3.4C0 3.17909 0.179086 3 0.4 3H5V2C5 0.895431 5.89543 0 7 0H11C12.1046 0 13 0.895431 13 2V3ZM3.9375 17H14.0625L14.8623 5H3.1377L3.9375 17ZM7 3H11V2H7V3Z" fill="#5A636B"/>
</svg>
