<svg width="24" height="24" viewBox="0 0 24 24" fill="none" xmlns="http://www.w3.org/2000/svg">
<path d="M20 12.7429C20 12.9638 19.8209 13.1429 19.6 13.1429H13.1429V19.6C13.1429 19.8209 12.9638 20 12.7429 20H11.2571C11.0362 20 10.8571 19.8209 10.8571 19.6V13.1429H4.4C4.17909 13.1429 4 12.9638 4 12.7429V11.2571C4 11.0362 4.17909 10.8571 4.4 10.8571H10.8571V4.4C10.8571 4.17909 11.0362 4 11.2571 4H12.7429C12.9638 4 13.1429 4.17909 13.1429 4.4V10.8571H19.6C19.8209 10.8571 20 11.0362 20 11.2571V12.7429Z" fill="#5A636B"/>
</svg>
