<svg width="24" height="24" viewBox="0 0 24 24" fill="none" xmlns="http://www.w3.org/2000/svg">
<path d="M13.1401 5.37249C13.1401 5.64864 12.9162 5.87249 12.6401 5.87249H5.13476V18.8389H17.9433V10.6946C17.9433 10.4185 18.1671 10.1946 18.4433 10.1946H19.578C19.8542 10.1946 20.078 10.4185 20.078 10.6946V18.8389C20.0779 20.0324 19.1222 21 17.9433 21H5.13476C3.95584 21 3.00012 20.0324 3 18.8389V5.87249C3 4.67897 3.95576 3.71142 5.13476 3.71142H12.6401C12.9162 3.71142 13.1401 3.93528 13.1401 4.21142V5.37249Z" fill="#5A636B"/>
<path d="M19.9436 6.6027L11.6266 15.0222L8.81846 15.7334C8.5842 15.7924 8.37241 15.578 8.4307 15.3409L9.13221 12.4971L17.4482 4.07758L19.9436 6.6027Z" fill="#5A636B"/>
<path d="M19.192 2.31643C19.6088 1.89449 20.2845 1.89455 20.7014 2.31643L21.6874 3.31361C22.1041 3.7356 22.1042 4.42068 21.6874 4.84261L20.7785 5.7617L18.2841 3.23552L19.192 2.31643Z" fill="#5A636B"/>
</svg>
