<svg width="65" height="20" viewBox="0 0 65 20" fill="none" xmlns="http://www.w3.org/2000/svg">
<g clip-path="url(#clip0_2_1008)">
<path d="M9.88583 0.0299955C9.95432 -0.00999849 10.039 -0.00999849 10.1072 0.0299955L13.4341 1.97737C13.5064 2.01956 13.5064 2.1242 13.4341 2.16638L5.07944 7.05633C5.04574 7.07605 5.0252 7.11194 5.0252 7.15084V12.8618C5.0252 12.8828 5.04821 12.896 5.06656 12.8853L9.9965 9.99972L13.4341 12.0117C13.5064 12.0539 13.5064 12.1586 13.4341 12.2008L5.13368 17.0589C5.06519 17.0989 4.98055 17.0989 4.91234 17.0589L1.5323 15.0806C1.46519 15.0412 1.42383 14.9694 1.42383 14.8916V5.10813C1.42383 5.03034 1.46519 4.95829 1.5323 4.91912L9.88583 0.0297213V0.0299955Z" fill="#2152E5"/>
<path d="M10.1083 19.971C10.0398 20.011 9.9552 20.011 9.88699 19.971L6.5601 18.0237C6.48778 17.9815 6.48778 17.8768 6.5601 17.8346L14.9147 12.9447C14.9484 12.925 14.969 12.8891 14.969 12.8502V7.13928C14.969 7.11819 14.946 7.10504 14.9276 7.11572L9.99766 10.0013L6.5601 7.98929C6.48778 7.9471 6.48778 7.84246 6.5601 7.80027L14.8605 2.9421C14.929 2.90211 15.0136 2.90211 15.0818 2.9421L18.4619 4.92044C18.529 4.95988 18.5703 5.03165 18.5703 5.10945V14.8929C18.5703 14.9707 18.529 15.0427 18.4619 15.0819L10.1083 19.9713V19.971Z" fill="#2152E5"/>
</g>
<path d="M26.0892 19.1689C26.0399 19.1689 26 19.129 26 19.0797V0.919275C26 0.870014 26.0399 0.830078 26.0892 0.830078H29.3818C29.431 0.830078 29.471 0.870013 29.471 0.919275V19.0797C29.471 19.129 29.431 19.1689 29.3818 19.1689H26.0892Z" fill="#121212"/>
<path d="M32.3504 19.1689C32.3012 19.1689 32.2612 19.129 32.2612 19.0797V0.919275C32.2612 0.870014 32.3012 0.830078 32.3504 0.830078H40.6339C41.9941 0.830078 43.1511 1.0746 44.1049 1.56363C45.0764 2.05267 45.8183 2.76002 46.3306 3.68569C46.8428 4.5939 47.0989 5.69423 47.0989 6.98668C47.0989 8.27913 46.834 9.40565 46.3041 10.3663C45.7741 11.3269 45.0234 12.0691 44.0519 12.5931C43.0804 13.0996 41.9322 13.3529 40.6074 13.3529H35.7953C35.7459 13.3529 35.7059 13.393 35.7061 13.4425L35.7318 19.0793C35.732 19.1287 35.692 19.1689 35.6426 19.1689H32.3504ZM35.7322 10.2509C35.7322 10.3001 35.7721 10.3401 35.8214 10.3401H40.1305C41.2257 10.3401 42.0647 10.0693 42.6476 9.52791C43.2482 8.98648 43.5485 8.15687 43.5485 7.03907C43.5485 5.88635 43.2482 5.06547 42.6476 4.57643C42.0647 4.0874 41.2257 3.84288 40.1305 3.84288H35.8214C35.7721 3.84288 35.7322 3.88282 35.7322 3.93208V10.2509Z" fill="#121212"/>
<path d="M60.1844 19.1689C60.156 19.1689 60.1294 19.1554 60.1125 19.1326L55.2304 12.5079C55.1946 12.4593 55.1219 12.4596 55.0864 12.5085L50.283 19.1321C50.2662 19.1552 50.2394 19.1689 50.2108 19.1689H46.6125C46.5403 19.1689 46.498 19.0876 46.5395 19.0284L52.8965 9.97204C52.918 9.94133 52.9181 9.90042 52.8966 9.86967L46.6715 0.970401C46.6302 0.911281 46.6725 0.830078 46.7446 0.830078H50.4226C50.4513 0.830078 50.4782 0.843874 50.495 0.867153L55.1135 7.28106C55.1487 7.32993 55.2213 7.3306 55.2573 7.28238L60.0595 0.865829C60.0764 0.843326 60.1028 0.830078 60.1309 0.830078H63.6215C63.6943 0.830078 63.7364 0.912407 63.6939 0.971407L57.3422 9.7896C57.3196 9.82101 57.3198 9.86342 57.3427 9.8946L64.0621 19.0268C64.1055 19.0857 64.0634 19.1689 63.9903 19.1689H60.1844Z" fill="#121212"/>
<defs>
<clipPath id="clip0_2_1008">
<rect width="20" height="20" fill="white"/>
</clipPath>
</defs>
</svg>
